<svg xmlns="http://www.w3.org/2000/svg" viewBox="0 0 454.81 80"><defs><style>.cls-1{fill:#00a4ff;}.cls-2{fill:#efefef;}.cls-3{fill:#7fd2ff;}</style></defs><title>Asset 1_svg</title><g id="Layer_2" data-name="Layer 2"><g id="Layer_1-2" data-name="Layer 1"><rect class="cls-1" x="1.18" y="18.03" width="435.99" height="52.07" rx="26.03"/><path class="cls-2" d="M23.2,78.52c-6.67,0-12.24-2-16.56-5.87S0,62.84,0,55.32a61.6,61.6,0,0,1,2.48-16.2A85.6,85.6,0,0,1,8.21,23.69a43.93,43.93,0,0,1,8.13-11.46c3.45-3.41,7.08-5.14,10.8-5.14a10.85,10.85,0,0,1,9,4.29,15.24,15.24,0,0,1,2.95,9.46,12.72,12.72,0,0,1-.84,4.48,17,17,0,0,1-1.75,3.55c-.56.83-1.72,2.56-3.77,2.56a3.82,3.82,0,0,1-3.9-4,7.27,7.27,0,0,1,.51-2.32,3.14,3.14,0,0,0,.18-.74,14.57,14.57,0,0,0-.48-3.81,2.84,2.84,0,0,0-1-1.53,1.86,1.86,0,0,0-1.26-.51c-3.28,0-7,4.21-10.47,11.87a69.82,69.82,0,0,0-3.95,11.86,53.53,53.53,0,0,0-1.58,12.56,14.81,14.81,0,0,0,1.49,6.69,11.17,11.17,0,0,0,4.11,4.58,11.31,11.31,0,0,0,6.26,1.68,22.36,22.36,0,0,0,11.48-3A61.84,61.84,0,0,0,45,56.51c.12-.2.42-.68,1-1.73.73-1.24,2.09-3.56,4.46-3.56a3.85,3.85,0,0,1,3.37,1.68,5,5,0,0,1,.72,2.81c0,1.39-.67,2.93-2.32,5.32l0,.07A57.7,57.7,0,0,1,40.44,72.63,28.12,28.12,0,0,1,23.2,78.52Z"/><path class="cls-3" d="M49.7,59.26A54.2,54.2,0,0,1,38.57,70.14,24.91,24.91,0,0,1,23.2,75.41q-8.86,0-14.48-5.07t-5.61-15A58.71,58.71,0,0,1,5.47,40,82.7,82.7,0,0,1,11,25.08a40.63,40.63,0,0,1,7.54-10.64q4.27-4.24,8.61-4.24a7.75,7.75,0,0,1,6.56,3.06A12.19,12.19,0,0,1,36,20.84a9.64,9.64,0,0,1-.64,3.4,13.74,13.74,0,0,1-1.43,2.9c-.53.79-.92,1.19-1.18,1.19-.53,0-.79-.3-.79-.89a5.93,5.93,0,0,1,.35-1.33,5.62,5.62,0,0,0,.34-1.72,17.69,17.69,0,0,0-.59-4.63,6,6,0,0,0-2-3.11,5,5,0,0,0-3.25-1.23q-7.09,0-13.3,13.69A72.88,72.88,0,0,0,9.41,41.53,56.57,56.57,0,0,0,7.74,54.82,17.87,17.87,0,0,0,9.56,62.9a14.17,14.17,0,0,0,13.15,8,25.23,25.23,0,0,0,13-3.45,64,64,0,0,0,11.58-8.86,23,23,0,0,0,1.38-2.22c.79-1.34,1.38-2,1.77-2a.89.89,0,0,1,.79.3,2.09,2.09,0,0,1,.2,1.08C51.48,56.37,50.88,57.55,49.7,59.26Z"/><path class="cls-2" d="M58.47,77.24a9.2,9.2,0,0,1-7.22-3A10.55,10.55,0,0,1,48.76,67c0-3.16,1.27-7.16,3.9-12.22A92.42,92.42,0,0,1,62,40.45,76.59,76.59,0,0,1,73.54,28.39,35,35,0,0,1,80,24a11.94,11.94,0,0,1,5.17-1.33A9.48,9.48,0,0,1,90,24.07a12.1,12.1,0,0,1,3.87,3.71,10.23,10.23,0,0,1,1.7,5.77,14,14,0,0,1-.39,3.3,6.66,6.66,0,0,1,1.66,4.45c.08,1.14.16,3.33.26,6.54l.24,8q.11,3.25.2,6.3c.06,1.72.11,3.15.17,4.25a4.87,4.87,0,0,1,1.51,3.34,8.11,8.11,0,0,1-1.48,4.39c-1.58,2.44-3.37,3-4.59,3s-3.89-.38-5.41-4a15.22,15.22,0,0,1-1.14-6c0-1.44.08-5.33.23-11.86-1.25,2-2.47,3.78-3.64,5.46a55.25,55.25,0,0,1-10.32,11A22.33,22.33,0,0,1,58.47,77.24ZM84.18,33.6c-.13,0-1.38.08-4.26,2.59a65.81,65.81,0,0,0-9,9.57,82.26,82.26,0,0,0-7.88,11.9c-2.28,4.31-2.84,6.73-2.88,8a13.29,13.29,0,0,0,8-3.25,43.79,43.79,0,0,0,8.23-8.79c2.49-3.51,5.3-7.88,8.35-13a14.17,14.17,0,0,0,.87-5A2.5,2.5,0,0,0,85.06,34,.93.93,0,0,0,84.18,33.6Z"/><path class="cls-3" d="M95.41,68.47a2,2,0,0,1,.69,1.23,5.17,5.17,0,0,1-1,2.71c-.65,1-1.31,1.53-2,1.53-1.11,0-2-.69-2.56-2.07A12.21,12.21,0,0,1,89.7,67q0-2.37.29-14.18l.1-3.75a4,4,0,0,0-1.18-3.25q-4.44,7.49-8.28,13a52.26,52.26,0,0,1-9.75,10.4,19.26,19.26,0,0,1-12.41,4.87,6.12,6.12,0,0,1-4.88-2A7.48,7.48,0,0,1,51.87,67q0-3.95,3.55-10.79a89.14,89.14,0,0,1,9.06-13.89,73.9,73.9,0,0,1,11-11.57,32.67,32.67,0,0,1,5.81-4,9.14,9.14,0,0,1,3.84-1,6.41,6.41,0,0,1,3.26,1,8.91,8.91,0,0,1,2.85,2.76,7.1,7.1,0,0,1,1.18,4,11,11,0,0,1-1.67,5.81l1.67-.49c.73,0,1.15.88,1.28,2.66q.1,1.57.25,6.4t.25,8c.06,2.17.13,4.27.19,6.3s.14,3.65.2,4.83A2.76,2.76,0,0,0,95.41,68.47Zm-25.32-3.6a46.32,46.32,0,0,0,8.82-9.4Q82.8,50,87.53,42a17,17,0,0,0,1.18-6.4A5.57,5.57,0,0,0,87.48,32a4,4,0,0,0-3.3-1.53q-2.46,0-6.31,3.35a69.19,69.19,0,0,0-9.35,10A83.39,83.39,0,0,0,60.34,56.2c-2.17,4.08-3.25,7.29-3.25,9.66,0,2,.92,3,2.76,3A16.19,16.19,0,0,0,70.09,64.87Z"/><path class="cls-2" d="M111.37,76c-3.35,0-4.7-3.64-5.14-4.84a29,29,0,0,1-1.22-9.6c.06-7.41.17-16.21.34-26.94.17-10.48.31-18.48.45-23.77A19.52,19.52,0,0,1,107,4.47,6.45,6.45,0,0,1,113.24,0a4.07,4.07,0,0,1,4,3.06,15.32,15.32,0,0,1,.38,4.09c0,.09,0,.4-.06.92a15.84,15.84,0,0,0,0,1.64,1.48,1.48,0,0,1,0,.21C116.35,27,115.76,44,115.76,60.24a14.91,14.91,0,0,0,1.2,5.54c1.65,4.11,1.65,4.23,1.65,4.91a4.78,4.78,0,0,1-3.08,4.39A9.79,9.79,0,0,1,111.37,76Z"/><path class="cls-3" d="M114.22,72.26a6.76,6.76,0,0,1-2.85.59c-.79,0-1.53-.93-2.22-2.81a26.24,26.24,0,0,1-1-8.52q.09-11.13.34-26.89t.44-23.74a16.44,16.44,0,0,1,1-5.32,3.34,3.34,0,0,1,3.3-2.46,1,1,0,0,1,1,.84,13,13,0,0,1,.25,3.2c0,.06,0,.28,0,.64s0,1,0,1.92q-1.77,25.91-1.77,50.53a17.77,17.77,0,0,0,1.43,6.7c1,2.37,1.42,3.61,1.42,3.75C115.5,71.34,115.08,71.87,114.22,72.26Z"/><path class="cls-2" d="M156.29,76.06a4.58,4.58,0,0,1-3.57-1.71A5.15,5.15,0,0,1,151.5,71s.1-3.54.1-3.54,0-.1,0-.15c.39-5,.58-11.3.58-18.67,0-5.32-.06-11.51-.19-18.41-.08-4.08-.16-7.24-.24-9.46-11,1.28-18.58,2.47-22.44,3.56a11.57,11.57,0,0,1-3.57.53,8.66,8.66,0,0,1-5.34-1.93,6.47,6.47,0,0,1-2.89-5.22,4.76,4.76,0,0,1,1.83-3.92,5.52,5.52,0,0,1,3.25-1.06c3.65-.19,6.78-.39,9.31-.58,5.16-.47,11.63-1.18,19.24-2.12,0-.8.07-1.44.13-1.94.44-3.84,3.18-4,3.73-4a7.71,7.71,0,0,1,5.54,2.39,4.36,4.36,0,0,1,1.09,2c1.1-.16,2.42-.37,4-.65A115.33,115.33,0,0,1,180.72,6c3.93,0,6.52.57,8.17,1.8,1,.76,2.32,2.33,2.32,5.35a5.65,5.65,0,0,1-1.39,3.6,5.33,5.33,0,0,1-4.18,2,9.86,9.86,0,0,1-2.95-.69,7.88,7.88,0,0,0-2.27-.4c-3,0-6.57.17-10.48.49-2.63.21-5,.49-7,.82.15,3.06.28,7.12.4,12.31.17,6.83.25,14.06.25,21.5,0,3.17,0,6.74-.15,10.62a50.2,50.2,0,0,1-.5,7.72,5.68,5.68,0,0,1-2.76,3.82A7.57,7.57,0,0,1,156.29,76.06Z"/><path class="cls-3" d="M187.42,14.78a2.22,2.22,0,0,1-1.78.84,12.38,12.38,0,0,1-2-.54,10.73,10.73,0,0,0-3.2-.54q-4.72,0-10.74.49a74.81,74.81,0,0,0-10,1.38q.3,4.72.55,14.92t.24,21.43q0,4.73-.15,10.54a54.13,54.13,0,0,1-.44,7.19,2.59,2.59,0,0,1-1.33,1.77,4.39,4.39,0,0,1-2.31.69,1.52,1.52,0,0,1-1.19-.59,2.12,2.12,0,0,1-.49-1.38l.1-3.45q.58-7.68.59-18.91,0-8.07-.2-18.47t-.39-12.86q-19.69,2.17-26.3,4a8.21,8.21,0,0,1-2.66.4,5.66,5.66,0,0,1-3.45-1.28,3.55,3.55,0,0,1-1.67-2.76,1.65,1.65,0,0,1,.59-1.43,2.35,2.35,0,0,1,1.48-.44q5.61-.3,9.45-.59,8.78-.8,22.07-2.47a42.63,42.63,0,0,1,.15-4.33c.09-.85.31-1.28.64-1.28a4.61,4.61,0,0,1,3.34,1.47,3.16,3.16,0,0,1,.5,1.53,13,13,0,0,1,.19,1.63,63.13,63.13,0,0,0,7.1-1,114.18,114.18,0,0,1,14.58-1.67q4.72,0,6.3,1.18a3.33,3.33,0,0,1,1.08,2.86A2.63,2.63,0,0,1,187.42,14.78Z"/><path class="cls-2" d="M199.73,78.23c-3,0-4.73-2.44-5.26-7.25-.34-3.11-.54-7.46-.61-13.31-.07-1.47-.12-3.58-.15-6.26s-.11-5.9-.24-9.58c-.2-5.66-.3-9.77-.3-12.22s1.54-5.38,5.87-5.38a4.92,4.92,0,0,1,5,3.81,27.64,27.64,0,0,1,.43,6.2v2l.66-1.08A40.88,40.88,0,0,1,212.5,26c2.81-2.47,5.4-3.68,7.91-3.68a12.32,12.32,0,0,1,5.53,1.31,12.19,12.19,0,0,1,4.22,3.39A7.86,7.86,0,0,1,232,31.87a5.91,5.91,0,0,1-2.23,4.31,6.23,6.23,0,0,1-4.22,2,5,5,0,0,1-3.44-1.41,14.34,14.34,0,0,1-1.84-2.13,2.9,2.9,0,0,0-.92-.85,1.43,1.43,0,0,0-.6-.23c-.32.13-1.92,1-5.17,6.1a112.77,112.77,0,0,0-8.93,17.82c.06,1.35.17,3,.31,5,.16,2.32.28,4,.34,5.17l.3,3.89v.23a7.85,7.85,0,0,1-1,4A5.26,5.26,0,0,1,199.73,78.23Z"/><path class="cls-3" d="M227.65,33.89A3.43,3.43,0,0,1,225.54,35a1.93,1.93,0,0,1-1.33-.6,10.92,10.92,0,0,1-1.43-1.67A5.86,5.86,0,0,0,221,31.09a4.42,4.42,0,0,0-2.32-.69c-1.9,0-4.47,2.51-7.68,7.53a117.08,117.08,0,0,0-9.46,19c.06,1.52.18,3.42.35,5.72s.27,4,.34,5.12l.3,3.94a4.71,4.71,0,0,1-.6,2.41,2.26,2.26,0,0,1-2.16,1c-1.12,0-1.84-1.5-2.17-4.48S197,63.3,197,57.58q-.1-2.16-.15-6.2t-.25-9.66q-.28-8.46-.29-12.11c0-1.51.92-2.27,2.76-2.27a1.83,1.83,0,0,1,2,1.43,28,28,0,0,1,.34,5.47V49.9a79.24,79.24,0,0,1,6.4-13.1,38,38,0,0,1,6.75-8.42c2.2-1.94,4.16-2.91,5.86-2.91a9.2,9.2,0,0,1,4.14,1A9,9,0,0,1,227.7,29a4.82,4.82,0,0,1,1.19,2.9A3.07,3.07,0,0,1,227.65,33.89Z"/><path class="cls-2" d="M240.51,77.24a9.2,9.2,0,0,1-7.22-3A10.55,10.55,0,0,1,230.8,67c0-3.16,1.27-7.16,3.89-12.22a93.25,93.25,0,0,1,9.38-14.37,76.59,76.59,0,0,1,11.51-12.06A35.38,35.38,0,0,1,262,24a12,12,0,0,1,5.18-1.33A9.48,9.48,0,0,1,272,24.07a12.1,12.1,0,0,1,3.87,3.71,10.23,10.23,0,0,1,1.7,5.77,14,14,0,0,1-.39,3.3,6.71,6.71,0,0,1,1.66,4.45c.08,1.14.16,3.33.26,6.54l.24,8c.07,2.17.13,4.27.2,6.3.06,1.72.11,3.15.17,4.25a4.91,4.91,0,0,1,1.51,3.34,8.11,8.11,0,0,1-1.48,4.39c-1.58,2.44-3.37,3-4.59,3s-3.89-.38-5.42-4a15.39,15.39,0,0,1-1.13-6c0-1.44.07-5.33.23-11.86-1.25,2-2.47,3.78-3.64,5.46a55.55,55.55,0,0,1-10.32,11A22.35,22.35,0,0,1,240.51,77.24ZM266.22,33.6c-.13,0-1.38.08-4.26,2.59a65.27,65.27,0,0,0-9,9.57,81.44,81.44,0,0,0-7.88,11.9c-2.28,4.31-2.84,6.73-2.88,8a13.29,13.29,0,0,0,7.95-3.25,43.79,43.79,0,0,0,8.23-8.79c2.49-3.51,5.3-7.88,8.34-13a14,14,0,0,0,.88-5A2.5,2.5,0,0,0,267.1,34,.93.93,0,0,0,266.22,33.6Z"/><path class="cls-3" d="M277.45,68.47a2,2,0,0,1,.69,1.23,5.17,5.17,0,0,1-1,2.71c-.65,1-1.31,1.53-2,1.53-1.11,0-2-.69-2.56-2.07a12.21,12.21,0,0,1-.88-4.83q0-2.37.29-14.18l.1-3.75A4,4,0,0,0,271,45.86q-4.44,7.49-8.28,13a52.26,52.26,0,0,1-9.75,10.4,19.26,19.26,0,0,1-12.41,4.87,6.12,6.12,0,0,1-4.88-2A7.48,7.48,0,0,1,233.91,67q0-3.95,3.54-10.79a90,90,0,0,1,9.07-13.89,73.44,73.44,0,0,1,11-11.57,32.67,32.67,0,0,1,5.81-4,9.14,9.14,0,0,1,3.84-1,6.35,6.35,0,0,1,3.25,1,8.84,8.84,0,0,1,2.86,2.76,7.1,7.1,0,0,1,1.18,4,11.09,11.09,0,0,1-1.67,5.81l1.67-.49c.73,0,1.15.88,1.28,2.66q.11,1.57.25,6.4t.25,8c.06,2.17.13,4.27.19,6.3s.13,3.65.2,4.83A2.76,2.76,0,0,0,277.45,68.47Zm-25.32-3.6a46.32,46.32,0,0,0,8.82-9.4Q264.84,50,269.57,42a17,17,0,0,0,1.18-6.4,5.57,5.57,0,0,0-1.23-3.6,4,4,0,0,0-3.3-1.53q-2.46,0-6.31,3.35a69.19,69.19,0,0,0-9.35,10,83.39,83.39,0,0,0-8.18,12.36c-2.17,4.08-3.25,7.29-3.25,9.66,0,2,.92,3,2.76,3A16.19,16.19,0,0,0,252.13,64.87Z"/><path class="cls-2" d="M294,76.85a10.49,10.49,0,0,1-8.66-4.51,15.35,15.35,0,0,1-3-9.34c0-4.6,1.15-10.15,3.52-17a67.73,67.73,0,0,1,8.89-17.54c4-5.57,8.31-8.38,12.76-8.38a8.23,8.23,0,0,1,5.94,2.48,12.93,12.93,0,0,1,2.22,3.1,8.82,8.82,0,0,1,1.16,4.12,22.87,22.87,0,0,1-.51,4.5c-.28,1.42-.94,4.72-4,4.72A4.34,4.34,0,0,1,308,35.64a16.39,16.39,0,0,1-.49-3.3c-.05-.37-.09-.69-.12-1-1.81.87-3.46,2.89-4.65,4.65a56.91,56.91,0,0,0-6.71,14.2c-1.73,5.34-2.61,9.44-2.61,12.19,0,3.39.89,3.39,1.23,3.39a7.77,7.77,0,0,0,4.15-1.13,26.52,26.52,0,0,0,4.88-4,97.21,97.21,0,0,0,7.94-9c.14-.21.43-.61,1.19-1.6s1.87-2.46,3.8-2.46a4,4,0,0,1,4.3,4c0,1.06-.37,2.08-2.54,5.36a64.75,64.75,0,0,1-4.3,5.8,73.22,73.22,0,0,1-9.62,10A16.37,16.37,0,0,1,294,76.85Z"/><path class="cls-3" d="M315.82,55.32a61.17,61.17,0,0,1-4.09,5.51,70.91,70.91,0,0,1-9.21,9.56A13.33,13.33,0,0,1,294,73.74a7.39,7.39,0,0,1-6.16-3.25A12.22,12.22,0,0,1,285.43,63q0-6.3,3.35-16a64.38,64.38,0,0,1,8.47-16.74q5.12-7.1,10.24-7.1a5.14,5.14,0,0,1,3.75,1.58,10.16,10.16,0,0,1,1.67,2.36,5.76,5.76,0,0,1,.79,2.66,20.65,20.65,0,0,1-.44,3.9c-.3,1.47-.61,2.21-.94,2.21A1.26,1.26,0,0,1,311,34.83a13.21,13.21,0,0,1-.39-2.76,18.72,18.72,0,0,0-.6-3.4c-.19-.56-.49-.84-.88-.84q-4.64,0-9,6.46a59.61,59.61,0,0,0-7.09,15q-2.76,8.52-2.76,13.15,0,6.5,4.34,6.5a10.93,10.93,0,0,0,5.76-1.57,29.47,29.47,0,0,0,5.47-4.44,97.53,97.53,0,0,0,8.27-9.36c.13-.19.51-.7,1.13-1.52s1.07-1.23,1.33-1.23c.79,0,1.19.29,1.19.88C317.84,52.07,317.16,53.28,315.82,55.32Z"/><path class="cls-2" d="M331.23,80c-2.2,0-3.65-1.63-4.32-4.84-.36-1.7-.76-4.87-1.23-9.69l-.51-4.38a9.08,9.08,0,0,1-1.42-1.22A5.61,5.61,0,0,1,322,56,6.05,6.05,0,0,1,324,51.89c-.09-3.43-.26-8-.51-13.67q-.45-9.85-.64-14.39s-.5-13.79-.5-13.83a17.3,17.3,0,0,1,.87-5.75,6,6,0,0,1,6-4,4.44,4.44,0,0,1,3.54,1.42A5,5,0,0,1,333.75,5c0,3,.21,10,.64,20.91.26,6.79.49,12.42.7,16.82,12.89-11.56,22.52-17.2,29.34-17.2a10.62,10.62,0,0,1,4.92,1.09c2.57,1.33,3.11,3.07,3.11,4.29a7.53,7.53,0,0,1-2.09,5,6.48,6.48,0,0,1-4.86,2.59,5.82,5.82,0,0,1-3.78-1.58,23.53,23.53,0,0,0-6.19,3.07,123.9,123.9,0,0,0-11.62,8.36c-2.86,2.31-5.25,4.38-7.13,6.17,4.21,1.92,8.84,4,13.8,6.09,7.2,3.1,10.5,4.12,12,4.42.81.12,1.64.2,2.45.26,1.09.08,1.57.09,1.75.09a12.69,12.69,0,0,1,2,.14,3.55,3.55,0,0,1,3.2,3.46c0,1.91-1.09,3.58-3.24,5a12.9,12.9,0,0,1-7.16,1.69c-2.62,0-5.91-.88-10.05-2.67-3.76-1.63-8.25-3.8-13.35-6.45l-1.12-.55c.64,6.41.74,8,.74,8.53a5.11,5.11,0,0,1-2.52,4.39A7.38,7.38,0,0,1,331.23,80Z"/><path class="cls-3" d="M368,33.79a3.57,3.57,0,0,1-2.51,1.53,2.9,2.9,0,0,1-1.77-.84,3,3,0,0,0-1.38-.83q-2.66,0-8.47,3.64A124,124,0,0,0,342,45.86a99.4,99.4,0,0,0-9.36,8.37l.1,1.78q7.49,3.45,16.65,7.39T362.07,68c.91.13,1.83.23,2.75.29s1.58.1,2,.1a8.73,8.73,0,0,1,1.48.1c.39.06.59.2.59.39,0,.79-.61,1.58-1.82,2.37a10.26,10.26,0,0,1-5.47,1.18c-2.17,0-5.1-.81-8.81-2.42s-8.1-3.72-13.16-6.35l-6.2-3q1.28,12.51,1.28,13.79a2,2,0,0,1-1.08,1.77,4.36,4.36,0,0,1-2.37.69c-.52,0-1-.79-1.28-2.36s-.72-4.7-1.18-9.36l-.69-6A5.92,5.92,0,0,1,326,57.73a2.66,2.66,0,0,1-.89-1.72c0-.79.66-1.71,2-2.76q-.09-5.32-.54-15.17t-.64-14.38L325.42,10a14.33,14.33,0,0,1,.69-4.72,2.89,2.89,0,0,1,3.05-2,1.57,1.57,0,0,1,1.19.34A2.19,2.19,0,0,1,330.64,5q0,4.53.64,21t1,23.5q22-20.89,32.11-20.89a7.61,7.61,0,0,1,3.5.74c.95.49,1.42,1,1.42,1.53A4.5,4.5,0,0,1,368,33.79Z"/><path class="cls-2" d="M386.69,76.85A18,18,0,0,1,374,72.07c-3.46-3.22-5.22-8.06-5.22-14.39a38.66,38.66,0,0,1,3.84-16.54,38.81,38.81,0,0,1,10.08-13.38c4.36-3.65,9-5.5,13.81-5.5a14.2,14.2,0,0,1,7.85,2.13,8.3,8.3,0,0,1,3.93,7.29c0,3.25-1.68,6.3-5,9.08A40.34,40.34,0,0,1,392.37,47,65.28,65.28,0,0,1,381,50.33a31.47,31.47,0,0,0-.64,6.17c0,3,.66,5.33,2,6.84a6.65,6.65,0,0,0,5.38,2.07,12.49,12.49,0,0,0,10-4.35,48.56,48.56,0,0,0,7.4-11.48.59.59,0,0,1,0-.08c.12-.24.32-.7.62-1.38.86-2,2.12-3,3.74-3,1.41,0,3.79,1,3.79,4.58,0,1.2-.34,3.2-2.86,9a38.43,38.43,0,0,1-8.57,12.13A21,21,0,0,1,386.69,76.85Zm8.67-44.33A9.1,9.1,0,0,0,390,34.4a20.28,20.28,0,0,0-5,5.08q1.37-.45,2.76-1a38.29,38.29,0,0,0,7.78-4.18,13.52,13.52,0,0,0,1.73-1.43A5,5,0,0,0,395.36,32.52Z"/><path class="cls-3" d="M410.14,49.7c0,1.19-.88,3.78-2.61,7.79a35.13,35.13,0,0,1-7.88,11.13,17.92,17.92,0,0,1-13,5.12,14.87,14.87,0,0,1-10.54-3.94q-4.23-3.94-4.24-12.12a35.53,35.53,0,0,1,3.55-15.22,35.53,35.53,0,0,1,9.26-12.31q5.71-4.78,11.82-4.78A11.07,11.07,0,0,1,402.7,27a5.24,5.24,0,0,1,2.51,4.68q0,3.45-3.89,6.69a36.86,36.86,0,0,1-10.1,5.72,61.5,61.5,0,0,1-12.8,3.54,35.06,35.06,0,0,0-1.19,8.87c0,3.81.91,6.76,2.71,8.87s4.39,3.15,7.74,3.15A15.58,15.58,0,0,0,400,63.1a51.22,51.22,0,0,0,7.88-12.21q.19-.41.69-1.53c.33-.76.62-1.13.89-1.13Q410.14,48.23,410.14,49.7Zm-11-19.4a7.8,7.8,0,0,0-3.79-.89,12.2,12.2,0,0,0-7.19,2.46,23.09,23.09,0,0,0-5.76,5.91,20.71,20.71,0,0,0-3,6.11A35.25,35.25,0,0,0,389,41.33a41.11,41.11,0,0,0,8.42-4.53q3.4-2.46,3.4-4A2.71,2.71,0,0,0,399.15,30.3Z"/><path class="cls-2" d="M422.55,78.23c-3,0-4.73-2.44-5.26-7.25-.34-3.11-.54-7.46-.61-13.31-.07-1.47-.11-3.51-.15-6.25s-.11-5.92-.24-9.59c-.2-5.65-.3-9.77-.3-12.22s1.54-5.38,5.87-5.38a4.92,4.92,0,0,1,5,3.81,27.64,27.64,0,0,1,.43,6.2v2q.33-.55.66-1.08A40.88,40.88,0,0,1,435.32,26c2.81-2.47,5.4-3.68,7.91-3.68a12.32,12.32,0,0,1,5.53,1.31A12.19,12.19,0,0,1,453,27.06a7.84,7.84,0,0,1,1.83,4.81,5.91,5.91,0,0,1-2.23,4.31,6.23,6.23,0,0,1-4.22,2,5,5,0,0,1-3.44-1.41,15,15,0,0,1-1.84-2.13,2.9,2.9,0,0,0-.92-.85,1.43,1.43,0,0,0-.6-.23c-.31.13-1.92,1-5.16,6.1a111.88,111.88,0,0,0-8.94,17.82c.06,1.34.16,3,.31,5,.16,2.32.28,4,.34,5.17l.3,3.89v.23a7.8,7.8,0,0,1-1,4A5.26,5.26,0,0,1,422.55,78.23Z"/><path class="cls-3" d="M450.47,33.89A3.43,3.43,0,0,1,448.36,35a1.93,1.93,0,0,1-1.33-.6,10.92,10.92,0,0,1-1.43-1.67,5.86,5.86,0,0,0-1.82-1.67,4.42,4.42,0,0,0-2.32-.69c-1.9,0-4.47,2.51-7.68,7.53a117.08,117.08,0,0,0-9.46,19c.06,1.52.18,3.42.35,5.72s.27,4,.34,5.12l.3,3.94a4.71,4.71,0,0,1-.6,2.41,2.26,2.26,0,0,1-2.16,1c-1.12,0-1.84-1.5-2.17-4.48s-.53-7.34-.59-13.06q-.1-2.16-.15-6.2t-.24-9.66q-.3-8.46-.3-12.11c0-1.51.92-2.27,2.76-2.27a1.83,1.83,0,0,1,2,1.43,28,28,0,0,1,.34,5.47V49.9a79.24,79.24,0,0,1,6.4-13.1,38,38,0,0,1,6.75-8.42c2.2-1.94,4.16-2.91,5.86-2.91a9.2,9.2,0,0,1,4.14,1A9,9,0,0,1,450.52,29a4.82,4.82,0,0,1,1.19,2.9A3.07,3.07,0,0,1,450.47,33.89Z"/></g></g></svg>